<svg width="35" height="25" viewBox="0 0 35 25" fill="none" xmlns="http://www.w3.org/2000/svg">
<rect width="35" height="25" rx="5" fill="#1588B4"/>
<path d="M8.23047 9.92773L5.91016 17H4.04102L7.21094 8.46875H8.40039L8.23047 9.92773ZM10.1582 17L7.83203 9.92773L7.64453 8.46875H8.8457L12.0332 17H10.1582ZM10.0527 13.8242V15.2012H5.54688V13.8242H10.0527ZM13.627 8.46875H15.1152L17.3066 14.7324L19.498 8.46875H20.9863L17.9043 17H16.709L13.627 8.46875ZM12.8242 8.46875H14.3066L14.5762 14.5742V17H12.8242V8.46875ZM20.3066 8.46875H21.7949V17H20.0371V14.5742L20.3066 8.46875ZM27.7773 14.7676C27.7773 14.6152 27.7539 14.4785 27.707 14.3574C27.6641 14.2324 27.582 14.1191 27.4609 14.0176C27.3398 13.9121 27.1699 13.8086 26.9512 13.707C26.7324 13.6055 26.4492 13.5 26.1016 13.3906C25.7148 13.2656 25.3477 13.125 25 12.9688C24.6562 12.8125 24.3516 12.6309 24.0859 12.4238C23.8242 12.2129 23.6172 11.9688 23.4648 11.6914C23.3164 11.4141 23.2422 11.0918 23.2422 10.7246C23.2422 10.3691 23.3203 10.0469 23.4766 9.75781C23.6328 9.46484 23.8516 9.21484 24.1328 9.00781C24.4141 8.79688 24.7461 8.63477 25.1289 8.52148C25.5156 8.4082 25.9395 8.35156 26.4004 8.35156C27.0293 8.35156 27.5781 8.46484 28.0469 8.69141C28.5156 8.91797 28.8789 9.22852 29.1367 9.62305C29.3984 10.0176 29.5293 10.4688 29.5293 10.9766H27.7832C27.7832 10.7266 27.7305 10.5078 27.625 10.3203C27.5234 10.1289 27.3672 9.97852 27.1562 9.86914C26.9492 9.75977 26.6875 9.70508 26.3711 9.70508C26.0664 9.70508 25.8125 9.75195 25.6094 9.8457C25.4062 9.93555 25.2539 10.0586 25.1523 10.2148C25.0508 10.3672 25 10.5391 25 10.7305C25 10.875 25.0352 11.0059 25.1055 11.123C25.1797 11.2402 25.2891 11.3496 25.4336 11.4512C25.5781 11.5527 25.7559 11.6484 25.9668 11.7383C26.1777 11.8281 26.4219 11.916 26.6992 12.002C27.1641 12.1426 27.5723 12.3008 27.9238 12.4766C28.2793 12.6523 28.5762 12.8496 28.8145 13.0684C29.0527 13.2871 29.2324 13.5352 29.3535 13.8125C29.4746 14.0898 29.5352 14.4043 29.5352 14.7559C29.5352 15.127 29.4629 15.459 29.3184 15.752C29.1738 16.0449 28.9648 16.293 28.6914 16.4961C28.418 16.6992 28.0918 16.8535 27.7129 16.959C27.334 17.0645 26.9102 17.1172 26.4414 17.1172C26.0195 17.1172 25.6035 17.0625 25.1934 16.9531C24.7832 16.8398 24.4102 16.6699 24.0742 16.4434C23.7422 16.2168 23.4766 15.9277 23.2773 15.5762C23.0781 15.2246 22.9785 14.8086 22.9785 14.3281H24.7422C24.7422 14.5938 24.7832 14.8184 24.8652 15.002C24.9473 15.1855 25.0625 15.334 25.2109 15.4473C25.3633 15.5605 25.543 15.6426 25.75 15.6934C25.9609 15.7441 26.1914 15.7695 26.4414 15.7695C26.7461 15.7695 26.9961 15.7266 27.1914 15.6406C27.3906 15.5547 27.5371 15.4355 27.6309 15.2832C27.7285 15.1309 27.7773 14.959 27.7773 14.7676Z" fill="white"/>
</svg>